<svg width="823" height="109" viewBox="0 0 823 109" fill="none" xmlns="http://www.w3.org/2000/svg">
<path d="M31.5072 108.43C20.3271 108.43 12.3971 105.44 7.71715 99.46C3.03715 93.3933 0.697149 84.6833 0.697149 73.33V35.63C0.697149 24.0167 2.99382 15.2633 7.58715 9.36999C12.2671 3.38999 20.2405 0.399993 31.5072 0.399993C42.2538 0.399993 49.8372 3.04333 54.2572 8.32999C58.7638 13.53 61.0171 21.0267 61.0171 30.82V39.66H40.2172V29.91C40.2172 26.79 40.0438 24.2767 39.6971 22.37C39.4372 20.4633 38.6572 18.9033 37.3572 17.69C36.1438 16.39 34.2371 15.74 31.6371 15.74C27.7371 15.74 25.2238 16.9967 24.0972 19.51C22.9705 22.0233 22.4071 25.7067 22.4071 30.56V78.4C22.4071 83.34 23.0571 87.0233 24.3571 89.45C25.6571 91.8767 28.0838 93.09 31.6371 93.09C35.2772 93.09 37.6172 91.8767 38.6572 89.45C39.6972 86.9367 40.2172 83.2533 40.2172 78.4V68.13H61.0171V76.84C61.0171 86.8933 58.8071 94.6933 54.3872 100.24C49.9672 105.7 42.3405 108.43 31.5072 108.43ZM163.623 108.43C152.443 108.43 144.469 105.527 139.703 99.72C134.936 93.8267 132.553 85.2033 132.553 73.85V34.59C132.553 23.2367 134.936 14.7 139.703 8.98C144.469 3.26 152.443 0.399993 163.623 0.399993C174.716 0.399993 182.646 3.30333 187.413 9.11C192.266 14.83 194.693 23.3233 194.693 34.59V73.98C194.693 85.2467 192.266 93.8267 187.413 99.72C182.646 105.527 174.716 108.43 163.623 108.43ZM163.623 93.09C167.263 93.09 169.689 91.8767 170.903 89.45C172.203 86.9367 172.853 83.5133 172.853 79.18V29.39C172.853 25.0567 172.203 21.72 170.903 19.38C169.689 16.9533 167.263 15.74 163.623 15.74C159.983 15.74 157.513 16.9533 156.213 19.38C154.999 21.72 154.393 25.0567 154.393 29.39V79.18C154.393 83.6 154.999 87.0233 156.213 89.45C157.426 91.8767 159.896 93.09 163.623 93.09ZM269.015 1.69999H283.965L307.365 56.43V1.69999H325.175V107H310.745L287.345 48.76V107H269.015V1.69999ZM410.877 17.56H394.627V1.69999H448.447V17.56H432.457V107H410.877V17.56ZM529.401 1.69999H553.191L573.471 107H553.711L549.811 83.86H533.171L529.141 107H508.991L529.401 1.69999ZM547.731 70.6L541.361 28.22L535.121 70.6H547.731ZM671.995 108.43C660.815 108.43 652.885 105.44 648.205 99.46C643.525 93.3933 641.185 84.6833 641.185 73.33V35.63C641.185 24.0167 643.482 15.2633 648.075 9.36999C652.755 3.38999 660.729 0.399993 671.995 0.399993C682.742 0.399993 690.325 3.04333 694.745 8.32999C699.252 13.53 701.505 21.0267 701.505 30.82V39.66H680.705V29.91C680.705 26.79 680.532 24.2767 680.185 22.37C679.925 20.4633 679.145 18.9033 677.845 17.69C676.632 16.39 674.725 15.74 672.125 15.74C668.225 15.74 665.712 16.9967 664.585 19.51C663.459 22.0233 662.895 25.7067 662.895 30.56V78.4C662.895 83.34 663.545 87.0233 664.845 89.45C666.145 91.8767 668.572 93.09 672.125 93.09C675.765 93.09 678.105 91.8767 679.145 89.45C680.185 86.9367 680.705 83.2533 680.705 78.4V68.13H701.505V76.84C701.505 86.8933 699.295 94.6933 694.875 100.24C690.455 105.7 682.829 108.43 671.995 108.43ZM784.481 17.56H768.231V1.69999H822.051V17.56H806.061V107H784.481V17.56Z" fill="#16142C"/>
</svg>
