<svg width="121" height="270" viewBox="0 0 121 270" fill="none" xmlns="http://www.w3.org/2000/svg">
<path d="M-11.5699 151.47L-10.0849 168.075L7.60003 268.245C8.54503 268.11 9.49003 267.975 10.435 267.705L-7.24995 167.535L-11.5699 151.47Z" fill="url(#paint0_radial)"/>
<path d="M-10.085 151.2L-7.24996 167.535L19.075 265.815C20.02 265.545 20.965 265.275 21.91 265.005L-4.41497 166.725L-10.085 151.2Z" fill="url(#paint1_radial)"/>
<path d="M-8.73499 150.795L-4.41499 166.86L30.415 262.44C31.36 262.17 32.305 261.765 33.115 261.495L-1.71499 165.915L-8.73499 150.795Z" fill="url(#paint2_radial)"/>
<path d="M-7.38495 150.255L-1.71496 165.915L41.35 258.12C42.295 257.715 43.105 257.31 44.05 256.905L0.985043 164.7L-7.38495 150.255Z" fill="url(#paint3_radial)"/>
<path d="M-6.03497 149.715L0.985025 164.835L51.88 252.99C52.69 252.45 53.5 252.045 54.445 251.505L3.55003 163.35L-6.03497 149.715Z" fill="url(#paint4_radial)"/>
<path d="M-7.38502 150.255L0.984985 164.7L-6.03502 149.715L-9.27502 145.125L-7.38502 150.255Z" fill="url(#paint5_radial)"/>
<path d="M-4.82001 148.905L3.54999 163.35L61.87 246.645C62.68 246.105 63.49 245.565 64.3 245.025L5.97999 161.73L-4.82001 148.905Z" fill="url(#paint6_radial)"/>
<path d="M-6.03507 149.715L3.54993 163.35L-4.82007 148.905L-8.33008 144.585L-6.03507 149.715Z" fill="url(#paint7_radial)"/>
<path d="M-3.60504 148.095L5.97996 161.73L71.3199 239.625C72.1299 238.95 72.8049 238.41 73.6149 237.735L8.27496 159.84L-3.60504 148.095Z" fill="url(#paint8_radial)"/>
<path d="M-4.81996 148.905L5.98006 161.73L-3.60496 148.095L-7.51996 144.045L-4.81996 148.905Z" fill="url(#paint9_radial)"/>
<path d="M-2.52502 147.15L8.13998 159.84L80.095 231.795C80.77 231.12 81.445 230.445 82.12 229.77L10.3 157.815L-2.52502 147.15Z" fill="url(#paint10_radial)"/>
<path d="M-3.60493 148.095L8.14005 159.84L-2.52493 147.15L-6.84491 143.505L-3.60493 148.095Z" fill="url(#paint11_radial)"/>
<path d="M-1.44495 146.07L10.3001 157.815L88.1951 223.155C88.8701 222.48 89.4101 221.67 90.0851 220.995L12.1901 155.655L-1.44495 146.07Z" fill="url(#paint12_radial)"/>
<path d="M-2.52497 147.15L10.3 157.815L-1.44496 146.07L-6.03497 142.83L-2.52497 147.15Z" fill="url(#paint13_radial)"/>
<path d="M-0.63501 144.855L12.055 155.52L95.35 213.84C95.89 213.03 96.43 212.22 96.97 211.41L13.675 153.09L-0.63501 144.855Z" fill="url(#paint14_radial)"/>
<path d="M-1.44493 146.07L12.1901 155.655L-0.634936 144.855L-5.49493 142.155L-1.44493 146.07Z" fill="url(#paint15_radial)"/>
<path d="M0.174988 143.64L13.81 153.225L101.965 204.12C102.505 203.31 102.91 202.5 103.45 201.555L15.295 150.66L0.174988 143.64Z" fill="url(#paint16_radial)"/>
<path d="M-0.635004 144.855L13.81 153.225L0.174996 143.64L-4.82001 141.345L-0.635004 144.855Z" fill="url(#paint17_radial)"/>
<path d="M0.984985 142.425L15.43 150.795L107.635 193.86C108.04 193.05 108.445 192.105 108.85 191.295L16.645 148.23L0.984985 142.425Z" fill="url(#paint18_radial)"/>
<path d="M0.174913 143.64L15.2949 150.795L0.984911 142.425L-4.28009 140.535L0.174913 143.64Z" fill="url(#paint19_radial)"/>
<path d="M-6.98004 139.59L-4.82003 141.345L0.174957 143.64L-4.28004 140.535L-6.98004 139.59Z" fill="url(#paint20_radial)"/>
<path d="M1.52502 141.075L16.645 148.095L112.225 182.925C112.63 181.98 112.9 181.17 113.17 180.225L17.59 145.395L1.52502 141.075Z" fill="url(#paint21_radial)"/>
<path d="M0.985 142.425L16.645 148.095L1.525 141.075L-3.875 139.725L0.985 142.425Z" fill="url(#paint22_radial)"/>
<path d="M-6.57501 138.915L-4.28001 140.535L0.985001 142.425L-3.87501 139.725L-6.57501 138.915Z" fill="url(#paint23_radial)"/>
<path d="M1.93005 139.725L17.5901 145.395L115.87 171.72C116.14 170.775 116.41 169.83 116.68 168.885L18.4001 142.56L1.93005 139.725Z" fill="url(#paint24_radial)"/>
<path d="M1.52502 141.075L17.59 145.395L1.93002 139.725L-3.46997 138.78L1.52502 141.075Z" fill="url(#paint25_radial)"/>
<path d="M-6.30499 138.24L-3.87499 139.725L1.52501 141.075L-3.46999 138.78L-6.30499 138.24Z" fill="url(#paint26_radial)"/>
<path d="M2.33496 138.375L18.4 142.695L118.57 160.38C118.705 159.435 118.975 158.49 119.11 157.545L18.94 139.86L2.33496 138.375Z" fill="url(#paint27_radial)"/>
<path d="M1.93005 139.725L18.4 142.56L2.33504 138.375L-3.19995 137.835L1.93005 139.725Z" fill="url(#paint28_radial)"/>
<path d="M-6.03497 137.565L-3.46996 138.78L1.93005 139.725L-3.19997 137.835L-6.03497 137.565Z" fill="url(#paint29_radial)"/>
<path d="M2.60504 136.89L18.94 139.725L120.325 148.635C120.46 147.69 120.46 146.745 120.595 145.8L19.21 136.89H2.60504Z" fill="url(#paint30_radial)"/>
<path d="M2.335 138.375L18.94 139.725L2.605 136.89H-3.065L2.335 138.375Z" fill="url(#paint31_radial)"/>
<path d="M-5.90002 136.89L-3.20002 137.835L2.33498 138.375L-3.06503 136.89H-5.90002Z" fill="url(#paint32_radial)"/>
<path d="M2.60504 135.405L19.21 136.89H121C121 136.215 121 135.675 121 135C121 134.595 121 134.325 121 133.92H19.345L2.60504 135.405Z" fill="url(#paint33_radial)"/>
<path d="M2.60495 136.89H19.2099L2.60495 135.405L-2.93005 135.945L2.60495 136.89Z" fill="url(#paint34_radial)"/>
<path d="M-5.76501 136.215L-3.06502 136.89H2.60498L-2.93002 135.945L-5.76501 136.215Z" fill="url(#paint35_radial)"/>
<path d="M2.60504 133.92H19.21L120.595 125.01C120.46 124.065 120.46 123.12 120.325 122.175L18.94 131.085L2.60504 133.92Z" fill="url(#paint36_radial)"/>
<path d="M-2.93005 135L2.60495 135.405L19.3449 133.92H2.60495L-2.93005 135Z" fill="url(#paint37_radial)"/>
<path d="M-5.63007 135.405L-2.93006 135.945L2.60497 135.405L-2.93006 135L-5.63007 135.405Z" fill="url(#paint38_radial)"/>
<path d="M2.46997 132.57L19.075 131.085L119.245 113.4C119.11 112.455 118.975 111.51 118.705 110.565L18.535 128.25L2.46997 132.57Z" fill="url(#paint39_radial)"/>
<path d="M2.60495 133.92L19.0749 131.085L2.46994 132.57L-2.93005 133.92H2.60495Z" fill="url(#paint40_radial)"/>
<path d="M-5.63007 134.73L-2.93006 135L2.60497 133.92H-2.93006L-5.63007 134.73Z" fill="url(#paint41_radial)"/>
<path d="M2.20001 131.085L18.535 128.25L116.95 101.925C116.68 100.98 116.41 100.035 116.14 99.09L17.86 125.415L2.20001 131.085Z" fill="url(#paint42_radial)"/>
<path d="M2.46999 132.57L18.535 128.25L2.2 131.085L-3.065 132.975L2.46999 132.57Z" fill="url(#paint43_radial)"/>
<path d="M-5.63007 133.92H-2.93006L2.46994 132.57L-3.06506 132.975L-5.63007 133.92Z" fill="url(#paint44_radial)"/>
<path d="M1.79492 129.735L17.8599 125.415L113.44 90.585C113.17 89.64 112.765 88.695 112.495 87.885L16.9149 122.715L1.79492 129.735Z" fill="url(#paint45_radial)"/>
<path d="M2.20004 131.085L17.86 125.415L1.79504 129.735L-3.19995 132.03L2.20004 131.085Z" fill="url(#paint46_radial)"/>
<path d="M-5.76501 133.245L-3.06502 132.975L2.19998 131.085L-3.20001 132.03L-5.76501 133.245Z" fill="url(#paint47_radial)"/>
<path d="M1.255 128.385L16.915 122.715L109.12 79.65C108.715 78.705 108.31 77.895 107.905 76.95L15.7 120.015L1.255 128.385Z" fill="url(#paint48_radial)"/>
<path d="M1.79495 129.735L16.9149 122.715L1.25496 128.385L-3.60504 131.085L1.79495 129.735Z" fill="url(#paint49_radial)"/>
<path d="M-6.03497 132.57L-3.19997 132.03L1.79503 129.735L-3.60498 131.085L-6.03497 132.57Z" fill="url(#paint50_radial)"/>
<path d="M0.715027 127.035L15.835 120.015L103.99 69.12C103.45 68.31 103.045 67.5 102.505 66.555L14.35 117.45L0.715027 127.035Z" fill="url(#paint51_radial)"/>
<path d="M1.25501 128.385L15.7 120.015L0.715005 127.035L-3.875 130.275L1.25501 128.385Z" fill="url(#paint52_radial)"/>
<path d="M-6.16992 131.895L-3.60493 131.085L1.25507 128.385L-3.87493 130.275L-6.16992 131.895Z" fill="url(#paint53_radial)"/>
<path d="M-0.0949707 125.82L14.35 117.45L97.6451 59.13C97.105 58.32 96.5651 57.51 96.0251 56.7L12.73 115.02L-0.0949707 125.82Z" fill="url(#paint54_radial)"/>
<path d="M0.715021 127.035L14.35 117.45L-0.0949759 125.82L-4.41498 129.33L0.715021 127.035Z" fill="url(#paint55_radial)"/>
<path d="M-6.57501 131.22L-3.87501 130.275L0.714996 127.035L-4.41501 129.33L-6.57501 131.22Z" fill="url(#paint56_radial)"/>
<path d="M-0.905029 124.605L12.73 115.02L90.625 49.68C89.95 48.87 89.41 48.195 88.735 47.385L10.84 112.725L-0.905029 124.605Z" fill="url(#paint57_radial)"/>
<path d="M-0.0950642 125.82L12.7299 115.02L-0.905073 124.605L-4.95508 128.52L-0.0950642 125.82Z" fill="url(#paint58_radial)"/>
<path d="M-1.84998 123.525L10.84 112.86L82.795 40.905C82.12 40.23 81.445 39.555 80.77 38.88L8.81503 110.7L-1.84998 123.525Z" fill="url(#paint59_radial)"/>
<path d="M-0.90494 124.605L10.8401 112.86L-1.84994 123.525L-5.49493 127.845L-0.90494 124.605Z" fill="url(#paint60_radial)"/>
<path d="M-2.93005 122.445L8.81495 110.7L74.1549 32.805C73.4799 32.13 72.6699 31.59 71.9949 30.915L6.65495 108.81L-2.93005 122.445Z" fill="url(#paint61_radial)"/>
<path d="M-1.84993 123.525L8.81505 110.7L-2.92994 122.445L-6.16992 127.035L-1.84993 123.525Z" fill="url(#paint62_radial)"/>
<path d="M-4.14496 121.635L6.52004 108.945L64.84 25.65C64.03 25.11 63.2201 24.57 62.4101 24.03L4.09004 107.325L-4.14496 121.635Z" fill="url(#paint63_radial)"/>
<path d="M-2.92992 122.445L6.65508 108.81L-4.14491 121.635L-6.84491 126.495L-2.92992 122.445Z" fill="url(#paint64_radial)"/>
<path d="M-5.35999 120.825L4.22502 107.19L55.12 19.035C54.31 18.495 53.5 18.09 52.555 17.55L1.66001 105.705L-5.35999 120.825Z" fill="url(#paint65_radial)"/>
<path d="M-4.14502 121.635L4.22499 107.19L-5.36002 120.825L-7.65503 125.82L-4.14502 121.635Z" fill="url(#paint66_radial)"/>
<path d="M-6.57501 120.015L1.79499 105.57L44.86 13.365C44.05 12.96 43.105 12.555 42.295 12.15L-0.770006 104.355L-6.57501 120.015Z" fill="url(#paint67_radial)"/>
<path d="M-5.36002 120.825L1.79497 105.705L-6.57503 120.015L-8.46503 125.28L-5.36002 120.825Z" fill="url(#paint68_radial)"/>
<path d="M-7.92505 119.475L-0.905052 104.355L33.925 8.77502C32.98 8.37002 32.17 8.10002 31.225 7.83002L-3.60505 103.41L-7.92505 119.475Z" fill="url(#paint69_radial)"/>
<path d="M-9.27502 119.07L-3.60503 103.41L22.72 5.13001C21.775 4.86001 20.83 4.59001 19.885 4.32001L-6.44003 102.6L-9.27502 119.07Z" fill="url(#paint70_radial)"/>
<path d="M-10.625 118.665L-6.305 102.6L11.38 2.43001C10.435 2.29501 9.49001 2.02501 8.54501 1.89001L-9.14 102.06L-10.625 118.665Z" fill="url(#paint71_radial)"/>
<defs>
<radialGradient id="paint0_radial" cx="0" cy="0" r="1" gradientUnits="userSpaceOnUse" gradientTransform="translate(-0.539919 209.88) scale(42.0156)">
<stop stop-color="#3DDDFF"/>
<stop offset="0.0914937" stop-color="#37E1EE"/>
<stop offset="0.5323" stop-color="#19F19F"/>
<stop offset="0.8457" stop-color="#07FB6D"/>
<stop offset="1" stop-color="#00FF5A"/>
</radialGradient>
<radialGradient id="paint1_radial" cx="0" cy="0" r="1" gradientUnits="userSpaceOnUse" gradientTransform="translate(5.91442 208.553) scale(42.1024)">
<stop stop-color="#3DDDFF"/>
<stop offset="0.0914937" stop-color="#37E1EE"/>
<stop offset="0.5323" stop-color="#19F19F"/>
<stop offset="0.8457" stop-color="#07FB6D"/>
<stop offset="1" stop-color="#00FF5A"/>
</radialGradient>
<radialGradient id="paint2_radial" cx="0" cy="0" r="1" gradientUnits="userSpaceOnUse" gradientTransform="translate(12.2176 206.66) scale(42.1762)">
<stop stop-color="#3DDDFF"/>
<stop offset="0.0914937" stop-color="#37E1EE"/>
<stop offset="0.5323" stop-color="#19F19F"/>
<stop offset="0.8457" stop-color="#07FB6D"/>
<stop offset="1" stop-color="#00FF5A"/>
</radialGradient>
<radialGradient id="paint3_radial" cx="0" cy="0" r="1" gradientUnits="userSpaceOnUse" gradientTransform="translate(18.3202 204.224) scale(42.2392)">
<stop stop-color="#3DDDFF"/>
<stop offset="0.0914937" stop-color="#37E1EE"/>
<stop offset="0.5323" stop-color="#19F19F"/>
<stop offset="0.8457" stop-color="#07FB6D"/>
<stop offset="1" stop-color="#00FF5A"/>
</radialGradient>
<radialGradient id="paint4_radial" cx="0" cy="0" r="1" gradientUnits="userSpaceOnUse" gradientTransform="translate(24.174 201.252) scale(42.2843)">
<stop stop-color="#3DDDFF"/>
<stop offset="0.0914937" stop-color="#37E1EE"/>
<stop offset="0.5323" stop-color="#19F19F"/>
<stop offset="0.8457" stop-color="#07FB6D"/>
<stop offset="1" stop-color="#00FF5A"/>
</radialGradient>
<radialGradient id="paint5_radial" cx="0" cy="0" r="1" gradientUnits="userSpaceOnUse" gradientTransform="translate(-4.12679 154.902) scale(7.83851)">
<stop stop-color="#3DDDFF"/>
<stop offset="0.0914937" stop-color="#37E1EE"/>
<stop offset="0.5323" stop-color="#19F19F"/>
<stop offset="0.8457" stop-color="#07FB6D"/>
<stop offset="1" stop-color="#00FF5A"/>
</radialGradient>
<radialGradient id="paint6_radial" cx="0" cy="0" r="1" gradientUnits="userSpaceOnUse" gradientTransform="translate(29.7386 197.779) scale(42.3206)">
<stop stop-color="#3DDDFF"/>
<stop offset="0.0914937" stop-color="#37E1EE"/>
<stop offset="0.5323" stop-color="#19F19F"/>
<stop offset="0.8457" stop-color="#07FB6D"/>
<stop offset="1" stop-color="#00FF5A"/>
</radialGradient>
<radialGradient id="paint7_radial" cx="0" cy="0" r="1" gradientUnits="userSpaceOnUse" gradientTransform="translate(-2.43044 153.965) scale(7.83729)">
<stop stop-color="#3DDDFF"/>
<stop offset="0.0914937" stop-color="#37E1EE"/>
<stop offset="0.5323" stop-color="#19F19F"/>
<stop offset="0.8457" stop-color="#07FB6D"/>
<stop offset="1" stop-color="#00FF5A"/>
</radialGradient>
<radialGradient id="paint8_radial" cx="0" cy="0" r="1" gradientUnits="userSpaceOnUse" gradientTransform="translate(34.9678 193.83) scale(42.3381)">
<stop stop-color="#3DDDFF"/>
<stop offset="0.0914937" stop-color="#37E1EE"/>
<stop offset="0.5323" stop-color="#19F19F"/>
<stop offset="0.8457" stop-color="#07FB6D"/>
<stop offset="1" stop-color="#00FF5A"/>
</radialGradient>
<radialGradient id="paint9_radial" cx="0" cy="0" r="1" gradientUnits="userSpaceOnUse" gradientTransform="translate(-0.820306 152.886) scale(7.83838)">
<stop stop-color="#3DDDFF"/>
<stop offset="0.0914937" stop-color="#37E1EE"/>
<stop offset="0.5323" stop-color="#19F19F"/>
<stop offset="0.8457" stop-color="#07FB6D"/>
<stop offset="1" stop-color="#00FF5A"/>
</radialGradient>
<radialGradient id="paint10_radial" cx="0" cy="0" r="1" gradientUnits="userSpaceOnUse" gradientTransform="translate(39.8257 189.431) scale(42.3459)">
<stop stop-color="#3DDDFF"/>
<stop offset="0.0914937" stop-color="#37E1EE"/>
<stop offset="0.5323" stop-color="#19F19F"/>
<stop offset="0.8457" stop-color="#07FB6D"/>
<stop offset="1" stop-color="#00FF5A"/>
</radialGradient>
<radialGradient id="paint11_radial" cx="0" cy="0" r="1" gradientUnits="userSpaceOnUse" gradientTransform="translate(0.688608 151.67) scale(7.83916)">
<stop stop-color="#3DDDFF"/>
<stop offset="0.0914937" stop-color="#37E1EE"/>
<stop offset="0.5323" stop-color="#19F19F"/>
<stop offset="0.8457" stop-color="#07FB6D"/>
<stop offset="1" stop-color="#00FF5A"/>
</radialGradient>
<radialGradient id="paint12_radial" cx="0" cy="0" r="1" gradientUnits="userSpaceOnUse" gradientTransform="translate(44.2812 184.627) scale(42.3405)">
<stop stop-color="#3DDDFF"/>
<stop offset="0.0914937" stop-color="#37E1EE"/>
<stop offset="0.5323" stop-color="#19F19F"/>
<stop offset="0.8457" stop-color="#07FB6D"/>
<stop offset="1" stop-color="#00FF5A"/>
</radialGradient>
<radialGradient id="paint13_radial" cx="0" cy="0" r="1" gradientUnits="userSpaceOnUse" gradientTransform="translate(2.08583 150.326) scale(7.83933)">
<stop stop-color="#3DDDFF"/>
<stop offset="0.0914937" stop-color="#37E1EE"/>
<stop offset="0.5323" stop-color="#19F19F"/>
<stop offset="0.8457" stop-color="#07FB6D"/>
<stop offset="1" stop-color="#00FF5A"/>
</radialGradient>
<radialGradient id="paint14_radial" cx="0" cy="0" r="1" gradientUnits="userSpaceOnUse" gradientTransform="translate(48.2867 179.44) scale(42.3195)">
<stop stop-color="#3DDDFF"/>
<stop offset="0.0914937" stop-color="#37E1EE"/>
<stop offset="0.5323" stop-color="#19F19F"/>
<stop offset="0.8457" stop-color="#07FB6D"/>
<stop offset="1" stop-color="#00FF5A"/>
</radialGradient>
<radialGradient id="paint15_radial" cx="0" cy="0" r="1" gradientUnits="userSpaceOnUse" gradientTransform="translate(3.36025 148.866) scale(7.83864)">
<stop stop-color="#3DDDFF"/>
<stop offset="0.0914937" stop-color="#37E1EE"/>
<stop offset="0.5323" stop-color="#19F19F"/>
<stop offset="0.8457" stop-color="#07FB6D"/>
<stop offset="1" stop-color="#00FF5A"/>
</radialGradient>
<radialGradient id="paint16_radial" cx="0" cy="0" r="1" gradientUnits="userSpaceOnUse" gradientTransform="translate(51.8258 173.918) scale(42.2869)">
<stop stop-color="#3DDDFF"/>
<stop offset="0.0914937" stop-color="#37E1EE"/>
<stop offset="0.5323" stop-color="#19F19F"/>
<stop offset="0.8457" stop-color="#07FB6D"/>
<stop offset="1" stop-color="#00FF5A"/>
</radialGradient>
<radialGradient id="paint17_radial" cx="0" cy="0" r="1" gradientUnits="userSpaceOnUse" gradientTransform="translate(4.50027 147.298) scale(7.83716)">
<stop stop-color="#3DDDFF"/>
<stop offset="0.0914937" stop-color="#37E1EE"/>
<stop offset="0.5323" stop-color="#19F19F"/>
<stop offset="0.8457" stop-color="#07FB6D"/>
<stop offset="1" stop-color="#00FF5A"/>
</radialGradient>
<radialGradient id="paint18_radial" cx="0" cy="0" r="1" gradientUnits="userSpaceOnUse" gradientTransform="translate(54.8618 168.1) scale(42.2405)">
<stop stop-color="#3DDDFF"/>
<stop offset="0.0914937" stop-color="#37E1EE"/>
<stop offset="0.5323" stop-color="#19F19F"/>
<stop offset="0.8457" stop-color="#07FB6D"/>
<stop offset="1" stop-color="#00FF5A"/>
</radialGradient>
<radialGradient id="paint19_radial" cx="0" cy="0" r="1" gradientUnits="userSpaceOnUse" gradientTransform="translate(5.50241 145.64) scale(7.8385)">
<stop stop-color="#3DDDFF"/>
<stop offset="0.0914937" stop-color="#37E1EE"/>
<stop offset="0.5323" stop-color="#19F19F"/>
<stop offset="0.8457" stop-color="#07FB6D"/>
<stop offset="1" stop-color="#00FF5A"/>
</radialGradient>
<radialGradient id="paint20_radial" cx="0" cy="0" r="1" gradientUnits="userSpaceOnUse" gradientTransform="translate(-3.37973 141.633) scale(2.93476)">
<stop stop-color="#3DDDFF"/>
<stop offset="0.0914937" stop-color="#37E1EE"/>
<stop offset="0.5323" stop-color="#19F19F"/>
<stop offset="0.8457" stop-color="#07FB6D"/>
<stop offset="1" stop-color="#00FF5A"/>
</radialGradient>
<radialGradient id="paint21_radial" cx="0" cy="0" r="1" gradientUnits="userSpaceOnUse" gradientTransform="translate(57.3698 162.025) scale(42.1784)">
<stop stop-color="#3DDDFF"/>
<stop offset="0.0914937" stop-color="#37E1EE"/>
<stop offset="0.5323" stop-color="#19F19F"/>
<stop offset="0.8457" stop-color="#07FB6D"/>
<stop offset="1" stop-color="#00FF5A"/>
</radialGradient>
<radialGradient id="paint22_radial" cx="0" cy="0" r="1" gradientUnits="userSpaceOnUse" gradientTransform="translate(6.35409 143.899) scale(7.83756)">
<stop stop-color="#3DDDFF"/>
<stop offset="0.0914937" stop-color="#37E1EE"/>
<stop offset="0.5323" stop-color="#19F19F"/>
<stop offset="0.8457" stop-color="#07FB6D"/>
<stop offset="1" stop-color="#00FF5A"/>
</radialGradient>
<radialGradient id="paint23_radial" cx="0" cy="0" r="1" gradientUnits="userSpaceOnUse" gradientTransform="translate(-2.84266 140.682) scale(2.9345)">
<stop stop-color="#3DDDFF"/>
<stop offset="0.0914937" stop-color="#37E1EE"/>
<stop offset="0.5323" stop-color="#19F19F"/>
<stop offset="0.8457" stop-color="#07FB6D"/>
<stop offset="1" stop-color="#00FF5A"/>
</radialGradient>
<radialGradient id="paint24_radial" cx="0" cy="0" r="1" gradientUnits="userSpaceOnUse" gradientTransform="translate(59.3377 155.747) scale(42.106)">
<stop stop-color="#3DDDFF"/>
<stop offset="0.0914937" stop-color="#37E1EE"/>
<stop offset="0.5323" stop-color="#19F19F"/>
<stop offset="0.8457" stop-color="#07FB6D"/>
<stop offset="1" stop-color="#00FF5A"/>
</radialGradient>
<radialGradient id="paint25_radial" cx="0" cy="0" r="1" gradientUnits="userSpaceOnUse" gradientTransform="translate(7.05259 142.091) scale(7.83728)">
<stop stop-color="#3DDDFF"/>
<stop offset="0.0914937" stop-color="#37E1EE"/>
<stop offset="0.5323" stop-color="#19F19F"/>
<stop offset="0.8457" stop-color="#07FB6D"/>
<stop offset="1" stop-color="#00FF5A"/>
</radialGradient>
<radialGradient id="paint26_radial" cx="0" cy="0" r="1" gradientUnits="userSpaceOnUse" gradientTransform="translate(-2.39013 139.688) scale(2.93382)">
<stop stop-color="#3DDDFF"/>
<stop offset="0.0914937" stop-color="#37E1EE"/>
<stop offset="0.5323" stop-color="#19F19F"/>
<stop offset="0.8457" stop-color="#07FB6D"/>
<stop offset="1" stop-color="#00FF5A"/>
</radialGradient>
<radialGradient id="paint27_radial" cx="0" cy="0" r="1" gradientUnits="userSpaceOnUse" gradientTransform="translate(60.735 149.308) scale(42.0183)">
<stop stop-color="#3DDDFF"/>
<stop offset="0.0914937" stop-color="#37E1EE"/>
<stop offset="0.5323" stop-color="#19F19F"/>
<stop offset="0.8457" stop-color="#07FB6D"/>
<stop offset="1" stop-color="#00FF5A"/>
</radialGradient>
<radialGradient id="paint28_radial" cx="0" cy="0" r="1" gradientUnits="userSpaceOnUse" gradientTransform="translate(7.59275 140.23) scale(7.83809)">
<stop stop-color="#3DDDFF"/>
<stop offset="0.0914937" stop-color="#37E1EE"/>
<stop offset="0.5323" stop-color="#19F19F"/>
<stop offset="0.8457" stop-color="#07FB6D"/>
<stop offset="1" stop-color="#00FF5A"/>
</radialGradient>
<radialGradient id="paint29_radial" cx="0" cy="0" r="1" gradientUnits="userSpaceOnUse" gradientTransform="translate(-2.02438 138.658) scale(2.93477)">
<stop stop-color="#3DDDFF"/>
<stop offset="0.0914937" stop-color="#37E1EE"/>
<stop offset="0.5323" stop-color="#19F19F"/>
<stop offset="0.8457" stop-color="#07FB6D"/>
<stop offset="1" stop-color="#00FF5A"/>
</radialGradient>
<radialGradient id="paint30_radial" cx="0" cy="0" r="1" gradientUnits="userSpaceOnUse" gradientTransform="translate(61.5672 142.762) scale(41.931)">
<stop stop-color="#3DDDFF"/>
<stop offset="0.0914937" stop-color="#37E1EE"/>
<stop offset="0.5323" stop-color="#19F19F"/>
<stop offset="0.8457" stop-color="#07FB6D"/>
<stop offset="1" stop-color="#00FF5A"/>
</radialGradient>
<radialGradient id="paint31_radial" cx="0" cy="0" r="1" gradientUnits="userSpaceOnUse" gradientTransform="translate(7.96396 138.328) scale(7.83756)">
<stop stop-color="#3DDDFF"/>
<stop offset="0.0914937" stop-color="#37E1EE"/>
<stop offset="0.5323" stop-color="#19F19F"/>
<stop offset="0.8457" stop-color="#07FB6D"/>
<stop offset="1" stop-color="#00FF5A"/>
</radialGradient>
<radialGradient id="paint32_radial" cx="0" cy="0" r="1" gradientUnits="userSpaceOnUse" gradientTransform="translate(-1.75107 137.601) scale(2.93504)">
<stop stop-color="#3DDDFF"/>
<stop offset="0.0914937" stop-color="#37E1EE"/>
<stop offset="0.5323" stop-color="#19F19F"/>
<stop offset="0.8457" stop-color="#07FB6D"/>
<stop offset="1" stop-color="#00FF5A"/>
</radialGradient>
<radialGradient id="paint33_radial" cx="0" cy="0" r="1" gradientUnits="userSpaceOnUse" gradientTransform="translate(61.8326 135.43) scale(41.8503)">
<stop stop-color="#3DDDFF"/>
<stop offset="0.0914937" stop-color="#37E1EE"/>
<stop offset="0.5323" stop-color="#19F19F"/>
<stop offset="0.8457" stop-color="#07FB6D"/>
<stop offset="1" stop-color="#00FF5A"/>
</radialGradient>
<radialGradient id="paint34_radial" cx="0" cy="0" r="1" gradientUnits="userSpaceOnUse" gradientTransform="translate(8.17113 136.157) scale(7.84795)">
<stop stop-color="#3DDDFF"/>
<stop offset="0.0914937" stop-color="#37E1EE"/>
<stop offset="0.5323" stop-color="#19F19F"/>
<stop offset="0.8457" stop-color="#07FB6D"/>
<stop offset="1" stop-color="#00FF5A"/>
</radialGradient>
<radialGradient id="paint35_radial" cx="0" cy="0" r="1" gradientUnits="userSpaceOnUse" gradientTransform="translate(-1.57286 136.401) scale(2.94219)">
<stop stop-color="#3DDDFF"/>
<stop offset="0.0914937" stop-color="#37E1EE"/>
<stop offset="0.5323" stop-color="#19F19F"/>
<stop offset="0.8457" stop-color="#07FB6D"/>
<stop offset="1" stop-color="#00FF5A"/>
</radialGradient>
<radialGradient id="paint36_radial" cx="0" cy="0" r="1" gradientUnits="userSpaceOnUse" gradientTransform="translate(61.6377 128.097) scale(41.9261)">
<stop stop-color="#3DDDFF"/>
<stop offset="0.0914937" stop-color="#37E1EE"/>
<stop offset="0.5323" stop-color="#19F19F"/>
<stop offset="0.8457" stop-color="#07FB6D"/>
<stop offset="1" stop-color="#00FF5A"/>
</radialGradient>
<radialGradient id="paint37_radial" cx="0" cy="0" r="1" gradientUnits="userSpaceOnUse" gradientTransform="translate(8.20987 134.705) scale(7.84782)">
<stop stop-color="#3DDDFF"/>
<stop offset="0.0914937" stop-color="#37E1EE"/>
<stop offset="0.5323" stop-color="#19F19F"/>
<stop offset="0.8457" stop-color="#07FB6D"/>
<stop offset="1" stop-color="#00FF5A"/>
</radialGradient>
<radialGradient id="paint38_radial" cx="0" cy="0" r="1" gradientUnits="userSpaceOnUse" gradientTransform="translate(-1.48623 135.433) scale(2.95557)">
<stop stop-color="#3DDDFF"/>
<stop offset="0.0914937" stop-color="#37E1EE"/>
<stop offset="0.5323" stop-color="#19F19F"/>
<stop offset="0.8457" stop-color="#07FB6D"/>
<stop offset="1" stop-color="#00FF5A"/>
</radialGradient>
<radialGradient id="paint39_radial" cx="0" cy="0" r="1" gradientUnits="userSpaceOnUse" gradientTransform="translate(60.8803 121.54) scale(42.0155)">
<stop stop-color="#3DDDFF"/>
<stop offset="0.0914937" stop-color="#37E1EE"/>
<stop offset="0.5323" stop-color="#19F19F"/>
<stop offset="0.8457" stop-color="#07FB6D"/>
<stop offset="1" stop-color="#00FF5A"/>
</radialGradient>
<radialGradient id="paint40_radial" cx="0" cy="0" r="1" gradientUnits="userSpaceOnUse" gradientTransform="translate(8.07879 132.529) scale(7.83877)">
<stop stop-color="#3DDDFF"/>
<stop offset="0.0914937" stop-color="#37E1EE"/>
<stop offset="0.5323" stop-color="#19F19F"/>
<stop offset="0.8457" stop-color="#07FB6D"/>
<stop offset="1" stop-color="#00FF5A"/>
</radialGradient>
<radialGradient id="paint41_radial" cx="0" cy="0" r="1" gradientUnits="userSpaceOnUse" gradientTransform="translate(-1.49622 134.463) scale(2.94301)">
<stop stop-color="#3DDDFF"/>
<stop offset="0.0914937" stop-color="#37E1EE"/>
<stop offset="0.5323" stop-color="#19F19F"/>
<stop offset="0.8457" stop-color="#07FB6D"/>
<stop offset="1" stop-color="#00FF5A"/>
</radialGradient>
<radialGradient id="paint42_radial" cx="0" cy="0" r="1" gradientUnits="userSpaceOnUse" gradientTransform="translate(59.5534 115.085) scale(42.102)">
<stop stop-color="#3DDDFF"/>
<stop offset="0.0914937" stop-color="#37E1EE"/>
<stop offset="0.5323" stop-color="#19F19F"/>
<stop offset="0.8457" stop-color="#07FB6D"/>
<stop offset="1" stop-color="#00FF5A"/>
</radialGradient>
<radialGradient id="paint43_radial" cx="0" cy="0" r="1" gradientUnits="userSpaceOnUse" gradientTransform="translate(7.77752 130.615) scale(7.83607)">
<stop stop-color="#3DDDFF"/>
<stop offset="0.0914937" stop-color="#37E1EE"/>
<stop offset="0.5323" stop-color="#19F19F"/>
<stop offset="0.8457" stop-color="#07FB6D"/>
<stop offset="1" stop-color="#00FF5A"/>
</radialGradient>
<radialGradient id="paint44_radial" cx="0" cy="0" r="1" gradientUnits="userSpaceOnUse" gradientTransform="translate(-1.60004 133.254) scale(2.93477)">
<stop stop-color="#3DDDFF"/>
<stop offset="0.0914937" stop-color="#37E1EE"/>
<stop offset="0.5323" stop-color="#19F19F"/>
<stop offset="0.8457" stop-color="#07FB6D"/>
<stop offset="1" stop-color="#00FF5A"/>
</radialGradient>
<radialGradient id="paint45_radial" cx="0" cy="0" r="1" gradientUnits="userSpaceOnUse" gradientTransform="translate(57.6609 108.782) scale(42.1756)">
<stop stop-color="#3DDDFF"/>
<stop offset="0.0914937" stop-color="#37E1EE"/>
<stop offset="0.5323" stop-color="#19F19F"/>
<stop offset="0.8457" stop-color="#07FB6D"/>
<stop offset="1" stop-color="#00FF5A"/>
</radialGradient>
<radialGradient id="paint46_radial" cx="0" cy="0" r="1" gradientUnits="userSpaceOnUse" gradientTransform="translate(7.31344 128.733) scale(7.83836)">
<stop stop-color="#3DDDFF"/>
<stop offset="0.0914937" stop-color="#37E1EE"/>
<stop offset="0.5323" stop-color="#19F19F"/>
<stop offset="0.8457" stop-color="#07FB6D"/>
<stop offset="1" stop-color="#00FF5A"/>
</radialGradient>
<radialGradient id="paint47_radial" cx="0" cy="0" r="1" gradientUnits="userSpaceOnUse" gradientTransform="translate(-1.79993 132.181) scale(2.93409)">
<stop stop-color="#3DDDFF"/>
<stop offset="0.0914937" stop-color="#37E1EE"/>
<stop offset="0.5323" stop-color="#19F19F"/>
<stop offset="0.8457" stop-color="#07FB6D"/>
<stop offset="1" stop-color="#00FF5A"/>
</radialGradient>
<radialGradient id="paint48_radial" cx="0" cy="0" r="1" gradientUnits="userSpaceOnUse" gradientTransform="translate(55.2244 102.68) scale(42.2391)">
<stop stop-color="#3DDDFF"/>
<stop offset="0.0914937" stop-color="#37E1EE"/>
<stop offset="0.5323" stop-color="#19F19F"/>
<stop offset="0.8457" stop-color="#07FB6D"/>
<stop offset="1" stop-color="#00FF5A"/>
</radialGradient>
<radialGradient id="paint49_radial" cx="0" cy="0" r="1" gradientUnits="userSpaceOnUse" gradientTransform="translate(6.686 126.899) scale(7.83769)">
<stop stop-color="#3DDDFF"/>
<stop offset="0.0914937" stop-color="#37E1EE"/>
<stop offset="0.5323" stop-color="#19F19F"/>
<stop offset="0.8457" stop-color="#07FB6D"/>
<stop offset="1" stop-color="#00FF5A"/>
</radialGradient>
<radialGradient id="paint50_radial" cx="0" cy="0" r="1" gradientUnits="userSpaceOnUse" gradientTransform="translate(-2.09243 131.128) scale(2.9345)">
<stop stop-color="#3DDDFF"/>
<stop offset="0.0914937" stop-color="#37E1EE"/>
<stop offset="0.5323" stop-color="#19F19F"/>
<stop offset="0.8457" stop-color="#07FB6D"/>
<stop offset="1" stop-color="#00FF5A"/>
</radialGradient>
<radialGradient id="paint51_radial" cx="0" cy="0" r="1" gradientUnits="userSpaceOnUse" gradientTransform="translate(52.2521 96.8263) scale(42.2843)">
<stop stop-color="#3DDDFF"/>
<stop offset="0.0914937" stop-color="#37E1EE"/>
<stop offset="0.5323" stop-color="#19F19F"/>
<stop offset="0.8457" stop-color="#07FB6D"/>
<stop offset="1" stop-color="#00FF5A"/>
</radialGradient>
<radialGradient id="paint52_radial" cx="0" cy="0" r="1" gradientUnits="userSpaceOnUse" gradientTransform="translate(5.90238 125.127) scale(7.83851)">
<stop stop-color="#3DDDFF"/>
<stop offset="0.0914937" stop-color="#37E1EE"/>
<stop offset="0.5323" stop-color="#19F19F"/>
<stop offset="0.8457" stop-color="#07FB6D"/>
<stop offset="1" stop-color="#00FF5A"/>
</radialGradient>
<radialGradient id="paint53_radial" cx="0" cy="0" r="1" gradientUnits="userSpaceOnUse" gradientTransform="translate(-2.47457 130.105) scale(2.93463)">
<stop stop-color="#3DDDFF"/>
<stop offset="0.0914937" stop-color="#37E1EE"/>
<stop offset="0.5323" stop-color="#19F19F"/>
<stop offset="0.8457" stop-color="#07FB6D"/>
<stop offset="1" stop-color="#00FF5A"/>
</radialGradient>
<radialGradient id="paint54_radial" cx="0" cy="0" r="1" gradientUnits="userSpaceOnUse" gradientTransform="translate(48.7788 91.262) scale(42.3213)">
<stop stop-color="#3DDDFF"/>
<stop offset="0.0914937" stop-color="#37E1EE"/>
<stop offset="0.5323" stop-color="#19F19F"/>
<stop offset="0.8457" stop-color="#07FB6D"/>
<stop offset="1" stop-color="#00FF5A"/>
</radialGradient>
<radialGradient id="paint55_radial" cx="0" cy="0" r="1" gradientUnits="userSpaceOnUse" gradientTransform="translate(4.96454 123.431) scale(7.83755)">
<stop stop-color="#3DDDFF"/>
<stop offset="0.0914937" stop-color="#37E1EE"/>
<stop offset="0.5323" stop-color="#19F19F"/>
<stop offset="0.8457" stop-color="#07FB6D"/>
<stop offset="1" stop-color="#00FF5A"/>
</radialGradient>
<radialGradient id="paint56_radial" cx="0" cy="0" r="1" gradientUnits="userSpaceOnUse" gradientTransform="translate(-2.94526 129.119) scale(2.93504)">
<stop stop-color="#3DDDFF"/>
<stop offset="0.0914937" stop-color="#37E1EE"/>
<stop offset="0.5323" stop-color="#19F19F"/>
<stop offset="0.8457" stop-color="#07FB6D"/>
<stop offset="1" stop-color="#00FF5A"/>
</radialGradient>
<radialGradient id="paint57_radial" cx="0" cy="0" r="1" gradientUnits="userSpaceOnUse" gradientTransform="translate(44.8292 86.0327) scale(42.3386)">
<stop stop-color="#3DDDFF"/>
<stop offset="0.0914937" stop-color="#37E1EE"/>
<stop offset="0.5323" stop-color="#19F19F"/>
<stop offset="0.8457" stop-color="#07FB6D"/>
<stop offset="1" stop-color="#00FF5A"/>
</radialGradient>
<radialGradient id="paint58_radial" cx="0" cy="0" r="1" gradientUnits="userSpaceOnUse" gradientTransform="translate(3.88433 121.822) scale(7.83757)">
<stop stop-color="#3DDDFF"/>
<stop offset="0.0914937" stop-color="#37E1EE"/>
<stop offset="0.5323" stop-color="#19F19F"/>
<stop offset="0.8457" stop-color="#07FB6D"/>
<stop offset="1" stop-color="#00FF5A"/>
</radialGradient>
<radialGradient id="paint59_radial" cx="0" cy="0" r="1" gradientUnits="userSpaceOnUse" gradientTransform="translate(40.4319 81.1738) scale(42.3455)">
<stop stop-color="#3DDDFF"/>
<stop offset="0.0914937" stop-color="#37E1EE"/>
<stop offset="0.5323" stop-color="#19F19F"/>
<stop offset="0.8457" stop-color="#07FB6D"/>
<stop offset="1" stop-color="#00FF5A"/>
</radialGradient>
<radialGradient id="paint60_radial" cx="0" cy="0" r="1" gradientUnits="userSpaceOnUse" gradientTransform="translate(2.66973 120.311) scale(7.83945)">
<stop stop-color="#3DDDFF"/>
<stop offset="0.0914937" stop-color="#37E1EE"/>
<stop offset="0.5323" stop-color="#19F19F"/>
<stop offset="0.8457" stop-color="#07FB6D"/>
<stop offset="1" stop-color="#00FF5A"/>
</radialGradient>
<radialGradient id="paint61_radial" cx="0" cy="0" r="1" gradientUnits="userSpaceOnUse" gradientTransform="translate(35.6272 76.7189) scale(42.3403)">
<stop stop-color="#3DDDFF"/>
<stop offset="0.0914937" stop-color="#37E1EE"/>
<stop offset="0.5323" stop-color="#19F19F"/>
<stop offset="0.8457" stop-color="#07FB6D"/>
<stop offset="1" stop-color="#00FF5A"/>
</radialGradient>
<radialGradient id="paint62_radial" cx="0" cy="0" r="1" gradientUnits="userSpaceOnUse" gradientTransform="translate(1.32715 118.913) scale(7.84038)">
<stop stop-color="#3DDDFF"/>
<stop offset="0.0914937" stop-color="#37E1EE"/>
<stop offset="0.5323" stop-color="#19F19F"/>
<stop offset="0.8457" stop-color="#07FB6D"/>
<stop offset="1" stop-color="#00FF5A"/>
</radialGradient>
<radialGradient id="paint63_radial" cx="0" cy="0" r="1" gradientUnits="userSpaceOnUse" gradientTransform="translate(30.4396 72.7137) scale(42.3199)">
<stop stop-color="#3DDDFF"/>
<stop offset="0.0914937" stop-color="#37E1EE"/>
<stop offset="0.5323" stop-color="#19F19F"/>
<stop offset="0.8457" stop-color="#07FB6D"/>
<stop offset="1" stop-color="#00FF5A"/>
</radialGradient>
<radialGradient id="paint64_radial" cx="0" cy="0" r="1" gradientUnits="userSpaceOnUse" gradientTransform="translate(-0.135147 117.641) scale(7.83769)">
<stop stop-color="#3DDDFF"/>
<stop offset="0.0914937" stop-color="#37E1EE"/>
<stop offset="0.5323" stop-color="#19F19F"/>
<stop offset="0.8457" stop-color="#07FB6D"/>
<stop offset="1" stop-color="#00FF5A"/>
</radialGradient>
<radialGradient id="paint65_radial" cx="0" cy="0" r="1" gradientUnits="userSpaceOnUse" gradientTransform="translate(24.9181 69.1738) scale(42.2866)">
<stop stop-color="#3DDDFF"/>
<stop offset="0.0914937" stop-color="#37E1EE"/>
<stop offset="0.5323" stop-color="#19F19F"/>
<stop offset="0.8457" stop-color="#07FB6D"/>
<stop offset="1" stop-color="#00FF5A"/>
</radialGradient>
<radialGradient id="paint66_radial" cx="0" cy="0" r="1" gradientUnits="userSpaceOnUse" gradientTransform="translate(-1.70165 116.5) scale(7.83757)">
<stop stop-color="#3DDDFF"/>
<stop offset="0.0914937" stop-color="#37E1EE"/>
<stop offset="0.5323" stop-color="#19F19F"/>
<stop offset="0.8457" stop-color="#07FB6D"/>
<stop offset="1" stop-color="#00FF5A"/>
</radialGradient>
<radialGradient id="paint67_radial" cx="0" cy="0" r="1" gradientUnits="userSpaceOnUse" gradientTransform="translate(19.0998 66.1376) scale(42.24)">
<stop stop-color="#3DDDFF"/>
<stop offset="0.0914937" stop-color="#37E1EE"/>
<stop offset="0.5323" stop-color="#19F19F"/>
<stop offset="0.8457" stop-color="#07FB6D"/>
<stop offset="1" stop-color="#00FF5A"/>
</radialGradient>
<radialGradient id="paint68_radial" cx="0" cy="0" r="1" gradientUnits="userSpaceOnUse" gradientTransform="translate(-3.36014 115.497) scale(7.83837)">
<stop stop-color="#3DDDFF"/>
<stop offset="0.0914937" stop-color="#37E1EE"/>
<stop offset="0.5323" stop-color="#19F19F"/>
<stop offset="0.8457" stop-color="#07FB6D"/>
<stop offset="1" stop-color="#00FF5A"/>
</radialGradient>
<radialGradient id="paint69_radial" cx="0" cy="0" r="1" gradientUnits="userSpaceOnUse" gradientTransform="translate(13.0256 63.6296) scale(42.1779)">
<stop stop-color="#3DDDFF"/>
<stop offset="0.0914937" stop-color="#37E1EE"/>
<stop offset="0.5323" stop-color="#19F19F"/>
<stop offset="0.8457" stop-color="#07FB6D"/>
<stop offset="1" stop-color="#00FF5A"/>
</radialGradient>
<radialGradient id="paint70_radial" cx="0" cy="0" r="1" gradientUnits="userSpaceOnUse" gradientTransform="translate(6.74692 61.663) scale(42.1064)">
<stop stop-color="#3DDDFF"/>
<stop offset="0.0914937" stop-color="#37E1EE"/>
<stop offset="0.5323" stop-color="#19F19F"/>
<stop offset="0.8457" stop-color="#07FB6D"/>
<stop offset="1" stop-color="#00FF5A"/>
</radialGradient>
<radialGradient id="paint71_radial" cx="0" cy="0" r="1" gradientUnits="userSpaceOnUse" gradientTransform="translate(0.307849 60.2659) scale(42.0192)">
<stop stop-color="#3DDDFF"/>
<stop offset="0.0914937" stop-color="#37E1EE"/>
<stop offset="0.5323" stop-color="#19F19F"/>
<stop offset="0.8457" stop-color="#07FB6D"/>
<stop offset="1" stop-color="#00FF5A"/>
</radialGradient>
</defs>
</svg>
