<svg width="473" height="457" viewBox="0 0 473 457" fill="none" xmlns="http://www.w3.org/2000/svg">
<path d="M236.5 349.912C305.902 349.912 362.163 295.554 362.163 228.5C362.163 161.446 305.902 107.088 236.5 107.088C167.098 107.088 110.837 161.446 110.837 228.5C110.837 295.554 167.098 349.912 236.5 349.912Z" stroke="#00FF5A" stroke-width="1.0223" stroke-miterlimit="10"/>
<path d="M236.5 314.216C285.497 314.216 325.217 275.84 325.217 228.5C325.217 181.16 285.497 142.784 236.5 142.784C187.503 142.784 147.783 181.16 147.783 228.5C147.783 275.84 187.503 314.216 236.5 314.216Z" stroke="#00FF5A" stroke-width="2" stroke-miterlimit="10"/>
<path opacity="0.4" d="M236.5 424.487C348.53 424.487 439.349 336.741 439.349 228.5C439.349 120.259 348.53 32.5129 236.5 32.5129C124.47 32.5129 33.6513 120.259 33.6513 228.5C33.6513 336.741 124.47 424.487 236.5 424.487Z" stroke="#00FF5A" stroke-width="1.0223" stroke-miterlimit="10"/>
<path opacity="0.2" d="M236.5 455.863C366.466 455.863 471.823 354.069 471.823 228.5C471.823 102.931 366.466 1.13684 236.5 1.13684C106.535 1.13684 1.17664 102.931 1.17664 228.5C1.17664 354.069 106.535 455.863 236.5 455.863Z" stroke="#00FF5A" stroke-width="1.0223" stroke-miterlimit="10"/>
<path opacity="0.6" d="M238.147 390.383C329.773 390.383 404.05 318.618 404.05 230.092C404.05 141.565 329.773 69.8005 238.147 69.8005C146.522 69.8005 72.2443 141.565 72.2443 230.092C72.2443 318.618 146.522 390.383 238.147 390.383Z" stroke="#00FF5A" stroke-width="1.0223" stroke-miterlimit="10"/>
</svg>
