<svg width="62" height="56" viewBox="0 0 62 56" fill="none" xmlns="http://www.w3.org/2000/svg">
<path d="M0.407715 3.39992C0.407715 1.70625 1.7831 0.333252 3.47972 0.333252H58.7758C60.4724 0.333252 61.8478 1.70625 61.8478 3.39992C61.8478 5.09359 60.4724 6.46658 58.7758 6.46658H3.47972C1.7831 6.46658 0.407715 5.09359 0.407715 3.39992Z" fill="white"/>
<path d="M0.407715 27.9332C0.407715 26.2396 1.7831 24.8666 3.47972 24.8666H58.7758C60.4724 24.8666 61.8478 26.2396 61.8478 27.9332C61.8478 29.6269 60.4724 30.9999 58.7758 30.9999H3.47972C1.7831 30.9999 0.407715 29.6269 0.407715 27.9332Z" fill="white"/>
<path d="M0.407715 52.4666C0.407715 50.7729 1.7831 49.3999 3.47972 49.3999H58.7758C60.4724 49.3999 61.8478 50.7729 61.8478 52.4666C61.8478 54.1602 60.4724 55.5332 58.7758 55.5332H3.47972C1.7831 55.5332 0.407715 54.1602 0.407715 52.4666Z" fill="white"/>
</svg>
